<svg fill="none" height="40" viewBox="0 0 40 40" width="40"
  xmlns="http://www.w3.org/2000/svg"
  xmlns:xlink="http://www.w3.org/1999/xlink">
  <linearGradient id="a" gradientUnits="userSpaceOnUse" x1="3.39162" x2="36.2604" y1="-3.334" y2="43.0419">
    <stop offset="0" stop-color="#d64541"/>
    <stop offset=".53" stop-color="#d4433f"/>
    <stop offset=".79" stop-color="#cc3c3a"/>
    <stop offset="1" stop-color="#bf3030"/>
  </linearGradient>
  <linearGradient id="b">
    <stop offset="0" stop-color="#fff"/>
    <stop offset="1" stop-color="#c9c9c9"/>
  </linearGradient>
  <linearGradient id="c" gradientUnits="userSpaceOnUse" x1=".269412" x2="41.3352" xlink:href="#b" y1="-.358" y2="19.3911"/>
  <linearGradient id="d" gradientUnits="userSpaceOnUse" x1="10735.3" x2="35956.2" xlink:href="#b" y1="481.759" y2="25234.7"/>
  <path d="m20.1068 40c11.1047 0 20.1068-8.9543 20.1068-20 0-11.04569-9.0021-20-20.1068-20-11.10467 0-20.1068 8.95431-20.1068 20 0 11.0457 9.00213 20 20.1068 20z" fill="#e11c48"/>
  <path d="m14.1246 9.14933c-.5634.544-1.0213 1.18667-1.3511 1.89597-.3167.7108-.4783 1.4807-.4739 2.2587 0 0-.0133 2.32-.024 2.5427-.0427.972-.2323 1.404-.8144 2.104-.7703.9253-2.41237.8-2.41237.8v2.4986s1.64207-.1253 2.41237.8c.5821.7014.7717 1.1334.8144 2.104.0093.2227.024 2.5427.024 2.5427-.004.7773.1562 1.5467.4739 2.2587.3298.7093.7877 1.352 1.3511 1.8946.5433.5227 2.2121 1.6507 4.2614 1.6507h8.2558v-2.5h-8.0422c-2.363 0-3.2681-1.5507-3.4844-1.996-.1932-.4059-.2909-.8506-.2857-1.3v-1.8573c0-1.0894-.2096-2.0934-.6208-2.984-.6368-1.4134-1.1882-1.8627-1.1882-1.8627s.5514-.4507 1.1882-1.8613c.4125-.8907.6208-1.8947.6208-2.984v-1.8574c-.0054-.4493.0921-.8933.2843-1.3.2177-.4466 1.1215-1.9973 3.4845-1.9973h8.0435v-2.5h-8.2558c-2.0493 0-3.7181 1.128-4.2614 1.64933z" fill="url(#c)"/>
  <path d="m20.1068 1.5c-10.2717 0-18.59826 8.28267-18.59826 18.5 0 10.2173 8.32656 18.5 18.59696 18.5 10.273 0 18.5995-8.2827 18.5995-18.5 0-10.21733-8.3252-18.5-18.5995-18.5zm0 35.5c-9.4386 0-17.08968-7.6107-17.08968-17s7.65108-17 17.08968-17 17.091 7.6107 17.091 17-7.651 17-17.091 17z" fill="url(#d)"/>
</svg>